<?xml version="1.0" ?><svg id="svg2" version="1.1" viewBox="0 0 744.09 1052.4" xmlns="http://www.w3.org/2000/svg" xmlns:cc="http://creativecommons.org/ns#" xmlns:dc="http://purl.org/dc/elements/1.1/" xmlns:rdf="http://www.w3.org/1999/02/22-rdf-syntax-ns#">
<g id="layer1">
<g class="sprite" id="ninja-kick" transform="translate(0)">
<ellipse cx="508.68" cy="280.35" d="m 599.134,280.35001 c 0,17.66151 -40.49764,31.979 -90.45401,31.979 -49.95636,0 -90.454,-14.31749 -90.454,-31.979 0,-17.66152 40.49764,-31.979 90.454,-31.979 49.95637,0 90.45401,14.31748 90.45401,31.979 z" fill="#4d4d4d" id="ellipse244" rx="90.454" ry="31.979"/>
<g id="g246">
<g id="g248">
<g id="g250">
<path d="m475.4 260.38c-0.167 0-0.333-0.006-0.498-0.017-7.478-0.156-13.688-6.117-14.146-13.589-0.129-2.081 0.198-4.162 0.948-6.102l-19.804-17.504-1.497-1.324 1.324-1.497 51.204-57.926c-1.543-5.579 0.373-11.55 4.974-15.187 0.262-0.228 0.513-0.417 0.77-0.586l30.435-20.165c0.766-0.508 1.624-0.873 2.552-1.082 1.482-0.496 3.025-0.746 4.592-0.746 4.877 0 9.391 2.422 12.075 6.479 3.618 5.452 3.114 12.659-1.211 17.567-0.554 0.778-1.227 1.43-1.998 1.942l-16.357 10.837 6.294 5.564c0.966-0.2 1.948-0.301 2.933-0.301 5.809 0 11.033 3.449 13.311 8.79 0.104 0.207 0.233 0.515 0.339 0.837l11.604 34.618c0.294 0.873 0.422 1.8 0.384 2.753 0.393 6.528-3.646 12.522-9.853 14.603-1.49 0.5-3.036 0.752-4.594 0.752-4.873 0-9.374-2.42-12.068-6.479-0.604-0.734-1.059-1.547-1.352-2.422l-3.858-11.512-18.463 20.886c6.325 1.371 10.988 6.781 11.389 13.26 0.405 6.532-3.637 12.522-9.84 14.609-0.862 0.392-1.767 0.62-2.689 0.679l-26.309 1.624-1.708 0.104-8.442 0.521c-0.141 0.01-0.291 0.014-0.441 0.014z" fill="#333" id="path252"/>
<path d="m536.26 126.66c4.044 0 8.009 1.957 10.41 5.581 3.21 4.842 2.589 11.093-1.115 15.225-0.408 0.59-0.915 1.106-1.531 1.514l-18.53 12.277 9.031 7.981c1.154-0.334 2.32-0.493 3.469-0.493 4.898 0 9.48 2.901 11.474 7.575 0.105 0.219 0.203 0.443 0.281 0.679l11.606 34.627c0.233 0.699 0.316 1.417 0.276 2.131 0.379 5.538-2.976 10.848-8.484 12.695-1.314 0.44-2.648 0.649-3.961 0.649-4.189 0-8.148-2.13-10.457-5.669-0.465-0.547-0.833-1.169-1.066-1.868l-4.959-14.794-23.429 26.503 1.366-0.083c0.112-0.007 0.224-0.01 0.335-0.01 0.618 0 1.22 0.104 1.796 0.294 5.447 1.065 9.709 5.681 10.067 11.479 0.358 5.797-3.307 10.898-8.581 12.626-0.646 0.309-1.345 0.5-2.08 0.547l-26.305 1.622-1.705 0.104-8.444 0.521c-0.105 0.007-0.211 0.01-0.315 0.01-0.141 0-0.28-0.005-0.42-0.016-6.448-0.115-11.829-5.163-12.232-11.712-0.145-2.34 0.375-4.565 1.383-6.504l-20.908-18.478 51.959-58.779c-1.844-5.005-0.304-10.749 4.004-14.126 0.184-0.159 0.377-0.311 0.584-0.448l30.444-20.17c0.616-0.408 1.29-0.674 1.991-0.819 1.319-0.45 2.687-0.671 4.046-0.671m0-3.998c-1.743 0-3.463 0.273-5.115 0.813-1.128 0.264-2.18 0.715-3.129 1.343l-30.446 20.171c-0.308 0.204-0.607 0.43-0.914 0.69-4.931 3.909-7.144 10.174-5.902 16.199l-50.518 57.148-2.648 2.995 2.996 2.648 18.811 16.623c-0.53 1.814-0.745 3.712-0.628 5.609 0.522 8.482 7.561 15.253 16.046 15.46 0.198 0.012 0.396 0.019 0.597 0.019 0.188 0 0.377-0.006 0.566-0.018l8.439-0.521 1.701-0.104 26.309-1.622c1.145-0.073 2.255-0.347 3.309-0.815 7.001-2.407 11.554-9.195 11.097-16.595-0.388-6.27-4.286-11.661-9.869-14.092l14.153-16.011 2.759 8.23c0.357 1.071 0.909 2.074 1.641 2.981 3.071 4.565 8.165 7.283 13.673 7.283 1.775 0 3.535-0.288 5.231-0.856 7.033-2.358 11.618-9.13 11.217-16.524 0.035-1.156-0.129-2.285-0.487-3.359l-11.608-34.631c-0.111-0.336-0.253-0.686-0.43-1.06-2.61-6.03-8.533-9.921-15.114-9.922-0.779 0-1.557 0.056-2.327 0.166l-3.622-3.201 14.187-9.399c0.945-0.626 1.771-1.418 2.457-2.356 4.863-5.583 5.412-13.742 1.313-19.925-3.061-4.611-8.197-7.367-13.745-7.367z" id="path254"/>
<path d="m536.26 126.66c4.044 0 8.009 1.957 10.41 5.581 3.21 4.842 2.589 11.093-1.115 15.225-0.408 0.59-0.915 1.106-1.531 1.514l-18.53 12.277 9.031 7.981c1.154-0.334 2.32-0.494 3.469-0.494 4.898 0 9.48 2.902 11.474 7.576 0.105 0.219 0.203 0.443 0.281 0.679l11.606 34.627c0.233 0.699 0.316 1.417 0.276 2.131 0.379 5.538-2.976 10.848-8.484 12.695-1.314 0.44-2.648 0.649-3.961 0.649-4.189 0-8.148-2.13-10.457-5.669-0.465-0.547-0.833-1.169-1.066-1.868l-4.959-14.794-23.429 26.503 1.366-0.083c0.112-0.007 0.224-0.01 0.335-0.01 0.618 0 1.22 0.104 1.796 0.294 5.447 1.065 9.709 5.681 10.067 11.479 0.358 5.797-3.307 10.898-8.581 12.626-0.646 0.309-1.345 0.5-2.08 0.547l-26.305 1.622-1.705 0.104-8.444 0.521c-0.106 0.007-0.211 0.01-0.316 0.01-0.141 0-0.279-0.005-0.419-0.016-6.448-0.115-11.829-5.163-12.232-11.712-0.145-2.34 0.375-4.565 1.383-6.504l-20.908-18.478 51.959-58.779c-1.844-5.005-0.304-10.749 4.004-14.126 0.184-0.159 0.377-0.311 0.584-0.448l30.444-20.17c0.616-0.408 1.29-0.674 1.991-0.819 1.319-0.451 2.687-0.671 4.046-0.671m0 3.997c-0.939 0-1.864 0.154-2.75 0.458l-0.24 0.083-0.249 0.052c-0.229 0.047-0.423 0.125-0.593 0.237l-30.442 20.168c-0.031 0.021-0.089 0.063-0.177 0.139l-0.073 0.063-0.075 0.059c-2.903 2.276-3.996 6.133-2.72 9.598l0.825 2.241-1.581 1.789-49.311 55.784 17.912 15.83 2.341 2.068-1.441 2.771c-0.709 1.363-1.034 2.889-0.939 4.413 0.27 4.386 3.922 7.883 8.313 7.961l0.108 0.002 0.107 0.008c0.044 0.003 0.088 0.005 0.132 0.005l0.067-0.002 8.447-0.522 1.709-0.104 26.301-1.622c0.199-0.013 0.399-0.066 0.604-0.164l0.233-0.111 0.245-0.081c3.674-1.203 6.073-4.731 5.835-8.58-0.238-3.853-3.053-7.061-6.845-7.803l-0.248-0.048-0.239-0.08c-0.188-0.062-0.365-0.092-0.541-0.092-0.029 0-0.06 0.001-0.089 0.003l-1.37 0.083-9.623 0.585 6.386-7.223 23.429-26.503 4.585-5.187 2.2 6.564 4.959 14.794c0.064 0.19 0.169 0.369 0.322 0.549l0.164 0.193 0.139 0.212c1.551 2.378 4.275 3.855 7.108 3.855 0.91 0 1.815-0.148 2.69-0.442 3.659-1.227 6.03-4.776 5.767-8.631l-0.018-0.249 0.015-0.249c0.013-0.237-0.012-0.446-0.077-0.64l-11.604-34.624c-0.009-0.026-0.029-0.083-0.093-0.214l-0.04-0.083-0.035-0.084c-1.334-3.126-4.394-5.146-7.797-5.146-0.794 0-1.587 0.113-2.358 0.336l-2.111 0.61-1.646-1.455-9.031-7.981-3.904-3.45 4.344-2.878 18.53-12.277c0.169-0.112 0.316-0.261 0.452-0.457l0.143-0.207 0.168-0.187c2.579-2.877 2.892-7.132 0.76-10.348-1.575-2.371-4.221-3.789-7.08-3.789z" fill="#262626" id="path256"/>
</g>
<g id="g258">
<path d="m445.94 230.33c-0.18 0-0.357-0.006-0.537-0.017-7.412-0.131-13.646-6.102-14.108-13.584-0.46-7.458 4.957-14.125 12.343-15.214 0.326-0.064 0.648-0.104 0.964-0.123l36.449-2.248c0.152-0.011 0.308-0.015 0.46-0.015 0.77 0 1.541 0.119 2.298 0.357 6.412 1.311 11.157 6.759 11.561 13.292 0.404 6.529-3.628 12.512-9.818 14.604-0.872 0.401-1.788 0.631-2.721 0.688l-36.448 2.248c-0.152 0.008-0.297 0.012-0.443 0.012z" fill="#333" id="path260"/>
<path d="m481.51 201.13c0.617 0 1.218 0.105 1.794 0.296 5.446 1.066 9.71 5.68 10.066 11.477 0.357 5.798-3.306 10.901-8.58 12.627-0.648 0.309-1.345 0.502-2.083 0.547l-36.452 2.247c-0.107 0.006-0.215 0.009-0.321 0.009-0.139 0-0.276-0.005-0.413-0.013-6.449-0.117-11.83-5.165-12.234-11.712-0.402-6.547 4.316-12.217 10.703-13.125 0.238-0.047 0.48-0.081 0.729-0.096l36.452-2.247c0.112-0.006 0.226-0.01 0.339-0.01m0-3.998c-0.195 0-0.391 0.006-0.587 0.019l-36.45 2.25c-0.369 0.022-0.748 0.069-1.146 0.143-8.396 1.247-14.552 8.831-14.03 17.313 0.524 8.491 7.577 15.267 16.073 15.463 0.188 0.01 0.375 0.015 0.564 0.015 0.186 0 0.372-0.005 0.559-0.016l36.461-2.248c1.133-0.069 2.246-0.343 3.309-0.814 7.001-2.403 11.555-9.192 11.099-16.596-0.455-7.401-5.809-13.58-13.054-15.106-0.917-0.279-1.858-0.42-2.797-0.42z" id="path262"/>
<path d="m481.51 201.13c0.617 0 1.218 0.105 1.794 0.296 5.446 1.066 9.71 5.68 10.066 11.477 0.357 5.798-3.306 10.901-8.58 12.627-0.648 0.309-1.345 0.502-2.083 0.547l-36.452 2.247c-0.107 0.006-0.215 0.009-0.321 0.009-0.139 0-0.276-0.005-0.413-0.013-6.449-0.117-11.83-5.165-12.234-11.712-0.402-6.547 4.316-12.217 10.703-13.125 0.238-0.047 0.48-0.081 0.729-0.096l36.452-2.247c0.112-0.006 0.226-0.01 0.339-0.01m0 3.998c-0.03 0-0.062 0.001-0.092 0.003l-36.454 2.247c-0.045 0.002-0.106 0.009-0.203 0.028l-0.104 0.021-0.105 0.015c-4.349 0.618-7.545 4.537-7.275 8.921 0.271 4.383 3.924 7.881 8.316 7.96l0.085 0.001 0.085 0.005c0.057 0.003 0.113 0.006 0.171 0.006l0.082-0.002 36.445-2.247c0.203-0.012 0.401-0.066 0.611-0.167l0.231-0.11 0.243-0.08c3.672-1.201 6.07-4.73 5.833-8.581-0.236-3.851-3.051-7.058-6.844-7.8l-0.251-0.049-0.242-0.08c-0.186-0.061-0.36-0.091-0.532-0.091z" fill="#262626" id="path264"/>
</g>
</g>
<g id="g266">
<g id="g268">
<path d="m441.66 217.23c-16.942 0-33.27-6.185-45.979-17.417-13.901-12.287-22.187-29.25-23.327-47.767-1.144-18.517 4.995-36.37 17.284-50.269 13.18-14.91 32.158-23.46 52.074-23.46 16.94 0 33.269 6.184 45.975 17.414 13.903 12.287 22.188 29.25 23.33 47.767 1.143 18.518-4.995 36.372-17.284 50.271-13.178 14.911-32.159 23.461-52.073 23.461z" fill="#333" id="path270"/>
<path d="m441.71 80.315c15.878 0 31.819 5.572 44.652 16.913 27.919 24.672 30.547 67.303 5.871 95.218-13.331 15.082-31.912 22.784-50.575 22.784-15.881 0-31.819-5.571-44.654-16.914-27.918-24.673-30.546-67.303-5.87-95.217 13.333-15.083 31.91-22.784 50.576-22.784m0-3.998c-20.487 0-40.014 8.797-53.571 24.135-12.642 14.301-18.957 32.668-17.782 51.718 1.174 19.05 9.697 36.502 24 49.143 13.073 11.553 29.872 17.916 47.302 17.916 20.487 0 40.013-8.796 53.57-24.134 12.642-14.301 18.957-32.669 17.782-51.719-1.174-19.05-9.698-36.503-24.001-49.143-13.07-11.564-29.87-17.927-47.3-17.927z" id="path272"/>
<path d="m441.71 80.315c15.878 0 31.819 5.572 44.652 16.913 27.919 24.672 30.547 67.303 5.871 95.218-13.333 15.083-31.91 22.784-50.575 22.784-15.879 0-31.821-5.573-44.654-16.914-27.918-24.673-30.546-67.303-5.87-95.217 13.333-15.083 31.91-22.784 50.576-22.784m0 3.998s0.001 0 0 0c-18.197 0-35.54 7.813-47.581 21.435-11.227 12.7-16.836 29.012-15.793 45.93s8.613 32.418 21.315 43.644c11.61 10.261 26.528 15.912 42.007 15.912 18.197 0 35.539-7.813 47.58-21.434 11.227-12.701 16.836-29.013 15.793-45.931-1.044-16.918-8.613-32.418-21.316-43.644-11.62-10.266-26.53-15.917-42.01-15.917z" fill="#262626" id="path274"/>
</g>
<g id="g276">
<path d="m444.56 200.62c-6.827 0-13.458-1.349-19.709-4.011l-2.716-1.155 2.535-1.512c12.577-7.496 24.847-17.816 35.482-29.845 10.629-12.026 19.366-25.469 25.264-38.872l1.188-2.7 1.48 2.552c10.89 18.768 8.551 42.302-5.822 58.563-9.541 10.791-23.283 16.98-37.702 16.98z" fill="#f0d0b4" id="path278"/>
<path d="m486.79 125.82c10.262 17.685 8.637 40.656-5.649 56.816-9.645 10.911-23.078 16.477-36.58 16.477-6.495 0-13.009-1.289-19.12-3.891 12.379-7.38 24.708-17.553 35.836-30.141 11.126-12.587 19.708-26.072 25.513-39.261m-0.367-6.607-2.377 5.399c-5.84 13.269-14.49 26.576-25.016 38.483-10.529 11.91-22.675 22.129-35.125 29.551l-5.069 3.022 5.43 2.312c6.438 2.741 13.267 4.13 20.295 4.13 14.851 0 29.002-6.375 38.826-17.489 14.802-16.744 17.212-40.979 5.997-60.307l-2.961-5.101z" id="path280"/>
<path d="m486.79 125.82c10.262 17.685 8.637 40.656-5.649 56.816-9.645 10.911-23.078 16.477-36.58 16.477-6.495 0-13.009-1.289-19.12-3.891 12.379-7.38 24.708-17.553 35.836-30.141 11.126-12.587 19.708-26.072 25.513-39.261m0.08 6.891c-5.924 11.913-13.915 23.686-23.348 34.356-9.434 10.671-20.136 20.046-31.229 27.386 3.974 1.104 8.079 1.662 12.267 1.662 13.133 0 25.646-5.636 34.334-15.464 11.746-13.287 14.668-31.907 7.976-47.94z" fill="#dfb28b" id="path282"/>
</g>
<g fill="#231f20" id="g284">
<circle cx="463.37" cy="179.07" d="m 466.868,179.07001 c 0,1.93189 -1.56611,3.498 -3.498,3.498 -1.9319,0 -3.498,-1.56611 -3.498,-3.498 0,-1.93189 1.5661,-3.498 3.498,-3.498 1.93189,0 3.498,1.56611 3.498,3.498 z" id="circle286" r="3.498"/>
<circle cx="475.42" cy="165.45" d="m 478.91801,165.45 c 0,1.93189 -1.5661,3.498 -3.498,3.498 -1.93189,0 -3.498,-1.56611 -3.498,-3.498 0,-1.9319 1.56611,-3.498 3.498,-3.498 1.9319,0 3.498,1.5661 3.498,3.498 z" id="circle288" r="3.498"/>
</g>
</g>
</g>
</g>
<g class="sprite" id="ninja-shuriken" transform="translate(0)">
<ellipse cx="601.3" cy="476.24" d="m 691.75399,476.23999 c 0,17.66151 -40.49764,31.979 -90.454,31.979 -49.95637,0 -90.454,-14.31749 -90.454,-31.979 0,-17.66151 40.49763,-31.979 90.454,-31.979 49.95636,0 90.454,14.31749 90.454,31.979 z" fill="#4d4d4d" id="ellipse292" rx="90.454" ry="31.979"/>
<g id="g294">
<g id="g296">
<g id="g298">
<path d="m519.62 452.85c-0.345 0-0.673-0.179-0.858-0.485l-13.081-21.834-11.253 2.59c-0.076 0.017-0.151 0.024-0.226 0.024-0.351 0-0.682-0.185-0.864-0.498-0.221-0.379-0.166-0.856 0.131-1.178l16.259-17.616-5.536-11.533c-0.189-0.392-0.103-0.858 0.213-1.157 0.189-0.181 0.438-0.275 0.688-0.275 0.164 0 0.328 0.04 0.478 0.122l21.232 11.554 9.709-10.357c0.193-0.206 0.461-0.315 0.73-0.315 0.155 0 0.311 0.036 0.454 0.109 0.397 0.202 0.612 0.642 0.525 1.079l-4.891 25.288 13.21 4.457c0.432 0.145 0.711 0.563 0.678 1.02-0.034 0.455-0.371 0.829-0.818 0.909l-26.074 4.739 0.294 12.336c0.011 0.453-0.286 0.856-0.722 0.982-0.092 0.026-0.185 0.039-0.278 0.039z" fill="#b3b3b3" id="path300"/>
<path d="m505.09 401.89 21.912 11.926 10.236-10.921-5.057 26.144 14.036 4.737-26.914 4.893 0.315 13.188-13.456-22.46-11.962 2.754 16.721-18.115-5.831-12.146m0-1.999c-0.501 0-0.996 0.188-1.377 0.55-0.629 0.598-0.8 1.532-0.425 2.314l5.243 10.923-15.8 17.118c-0.595 0.644-0.7 1.601-0.26 2.358 0.363 0.626 1.027 0.996 1.729 0.996 0.148 0 0.299-0.017 0.448-0.051l10.547-2.429 12.709 21.213c0.368 0.614 1.025 0.972 1.715 0.972 0.185 0 0.372-0.025 0.556-0.079 0.872-0.252 1.465-1.061 1.442-1.968l-0.274-11.479 25.232-4.587c0.896-0.163 1.569-0.912 1.636-1.821s-0.49-1.748-1.354-2.039l-12.382-4.179 4.726-24.429c0.169-0.875-0.261-1.755-1.054-2.16-0.288-0.147-0.6-0.219-0.908-0.219-0.54 0-1.071 0.219-1.459 0.632l-9.18 9.794-20.556-11.188c-0.299-0.162-0.628-0.242-0.954-0.242z" id="path302"/>
<path d="m505.09 401.89 21.912 11.926 10.236-10.921-5.057 26.144 14.036 4.737-26.914 4.893 0.315 13.188-13.456-22.46-11.962 2.754 16.721-18.115-5.831-12.146m4.48 4.714 3.152 6.567c0.354 0.739 0.223 1.619-0.333 2.221l-12.331 13.359 5.656-1.303c0.149-0.034 0.3-0.051 0.448-0.051 0.691 0 1.349 0.36 1.715 0.972l9.562 15.96-0.134-5.613c-0.023-0.983 0.673-1.838 1.641-2.015l19.297-3.508-6.7-2.262c-0.948-0.319-1.514-1.291-1.324-2.273l3.742-19.344-5.501 5.868c-0.388 0.414-0.92 0.632-1.459 0.632-0.325 0-0.653-0.079-0.954-0.243l-16.477-8.967z" fill="#808080" id="path304"/>
</g>
<g id="g306">
<path d="m520.21 429.79c-2.514 0-4.557-2.044-4.557-4.555 0-2.513 2.043-4.557 4.557-4.557 2.513 0 4.557 2.044 4.557 4.557 0 2.511-2.044 4.555-4.557 4.555z" id="path308"/>
<path d="m520.21 421.67c1.965 0 3.558 1.594 3.558 3.559 0 1.964-1.593 3.556-3.558 3.556-1.964 0-3.557-1.592-3.557-3.556 0-1.965 1.593-3.559 3.557-3.559m0-1.999c-3.063 0-5.556 2.493-5.556 5.558 0 3.063 2.492 5.555 5.556 5.555s5.557-2.492 5.557-5.555c0-3.065-2.494-5.558-5.557-5.558z" fill="#666" id="path310"/>
</g>
</g>
<g id="g312">
<g id="g314">
<path d="m645.49 486.79c-6.553 0-12.285-4.407-13.982-10.731-0.337-0.884-0.51-1.798-0.51-2.719v-16.259h-45.781v16.259c0 0.919-0.173 1.83-0.512 2.719-1.695 6.324-7.428 10.731-13.98 10.731-6.555 0-12.292-4.41-13.989-10.735-0.334-0.887-0.506-1.799-0.506-2.715v-47.62l-7.435 7.435c-0.652 0.654-1.423 1.182-2.29 1.566-2.199 1.266-4.699 1.934-7.242 1.934-3.864 0-7.497-1.505-10.227-4.236-4.63-4.629-5.569-11.794-2.303-17.467 0.383-0.86 0.909-1.631 1.563-2.288l25.83-25.823c0.23-0.233 0.479-0.443 0.731-0.643 2.554-2.179 5.892-3.407 9.336-3.407 3.866 0 7.501 1.507 10.234 4.24 2.719 2.719 4.224 6.416 4.232 10.214h59.09c0.011-3.798 1.514-7.495 4.231-10.214 2.734-2.733 6.369-4.24 10.235-4.24 3.444 0 6.781 1.229 9.397 3.457 0.19 0.146 0.437 0.357 0.67 0.593l25.827 25.821c0.657 0.659 1.185 1.43 1.567 2.29 3.269 5.676 2.327 12.841-2.306 17.469-2.729 2.729-6.359 4.234-10.226 4.234-2.544 0-5.046-0.668-7.24-1.934-0.867-0.385-1.638-0.912-2.29-1.566l-7.634-7.632v47.817c0 0.916-0.172 1.828-0.506 2.715-1.694 6.325-7.431 10.735-13.984 10.735z" fill="#333" id="path316"/>
<path d="m652.22 384.79c2.885 0 5.771 0.994 8.102 2.979 0.192 0.148 0.378 0.308 0.554 0.483l25.826 25.82c0.521 0.522 0.916 1.129 1.197 1.788 2.809 4.786 2.175 11.037-1.935 15.143-2.436 2.437-5.624 3.65-8.814 3.65-2.19 0-4.382-0.572-6.33-1.716-0.658-0.281-1.265-0.676-1.787-1.198l-11.045-11.044v52.644c0 0.737-0.15 1.444-0.417 2.109-1.398 5.371-6.268 9.341-12.077 9.341s-10.678-3.97-12.076-9.341c-0.268-0.665-0.417-1.372-0.417-2.109v-18.258h-49.78v18.259c0 0.737-0.15 1.444-0.418 2.109-1.397 5.371-6.266 9.341-12.075 9.341s-10.679-3.97-12.078-9.341c-0.267-0.665-0.416-1.372-0.416-2.109v-52.45l-10.848 10.846c-0.521 0.522-1.128 0.917-1.787 1.198-1.949 1.144-4.14 1.716-6.331 1.716-3.189 0-6.379-1.215-8.814-3.65-4.107-4.105-4.742-10.356-1.934-15.143 0.281-0.659 0.677-1.266 1.197-1.788l25.826-25.82c0.176-0.176 0.362-0.335 0.555-0.483 2.33-1.985 5.216-2.979 8.101-2.979 3.192 0 6.385 1.217 8.821 3.654 2.943 2.941 4.101 6.984 3.49 10.8h63.399c-0.609-3.815 0.548-7.858 3.489-10.8 2.437-2.438 5.628-3.655 8.822-3.655m0-3.998c-4.4 0-8.537 1.714-11.648 4.825-2.614 2.614-4.243 6.024-4.69 9.629h-55.344c-0.448-3.604-2.077-7.016-4.692-9.63-3.11-3.11-7.247-4.824-11.647-4.824-3.887 0-7.655 1.375-10.622 3.874-0.314 0.247-0.597 0.497-0.859 0.76l-25.826 25.82c-0.809 0.811-1.458 1.751-1.939 2.801-3.654 6.439-2.569 14.542 2.676 19.784 3.108 3.108 7.243 4.821 11.641 4.821 2.857 0 5.668-0.741 8.145-2.146 1.056-0.483 1.998-1.136 2.803-1.941l4.021-4.021v42.795c0 1.136 0.204 2.26 0.607 3.347 1.969 7.138 8.467 12.102 15.885 12.102s13.913-4.963 15.882-12.099c0.404-1.088 0.609-2.214 0.609-3.35v-14.261h41.784v14.261c0 1.138 0.205 2.264 0.608 3.35 1.97 7.136 8.466 12.099 15.883 12.099 7.419 0 13.916-4.965 15.884-12.102 0.403-1.088 0.608-2.213 0.608-3.347v-42.993l4.22 4.221c0.805 0.804 1.745 1.455 2.798 1.938 2.477 1.404 5.287 2.146 8.146 2.146 4.398 0 8.533-1.713 11.642-4.822 5.246-5.24 6.331-13.344 2.676-19.783-0.483-1.054-1.133-1.993-1.936-2.798l-25.84-25.81c-0.265-0.265-0.547-0.515-0.86-0.761-2.971-2.497-6.738-3.872-10.625-3.872z" id="path318"/>
<path d="m652.22 384.79c2.885 0 5.771 0.994 8.102 2.979 0.192 0.148 0.378 0.308 0.554 0.483l25.826 25.82c0.521 0.522 0.916 1.129 1.197 1.788 2.809 4.786 2.175 11.037-1.935 15.143-2.436 2.437-5.624 3.65-8.814 3.65-2.19 0-4.382-0.572-6.33-1.716-0.658-0.281-1.265-0.676-1.787-1.198l-11.045-11.044v52.644c0 0.737-0.15 1.444-0.417 2.109-1.398 5.371-6.268 9.341-12.077 9.341s-10.678-3.97-12.076-9.341c-0.268-0.665-0.417-1.372-0.417-2.109v-18.258h-49.78v18.259c0 0.737-0.15 1.444-0.418 2.109-1.397 5.371-6.266 9.341-12.075 9.341s-10.679-3.97-12.078-9.341c-0.267-0.665-0.416-1.372-0.416-2.109v-52.45l-10.848 10.846c-0.521 0.522-1.128 0.917-1.787 1.198-1.949 1.144-4.14 1.716-6.331 1.716-3.189 0-6.379-1.215-8.814-3.65-4.107-4.105-4.742-10.356-1.934-15.143 0.281-0.659 0.677-1.266 1.197-1.788l25.826-25.82c0.176-0.176 0.362-0.335 0.555-0.483 2.33-1.985 5.216-2.979 8.101-2.979 3.192 0 6.385 1.217 8.821 3.654 2.943 2.941 4.101 6.984 3.49 10.8h63.399c-0.609-3.815 0.548-7.858 3.489-10.8 2.437-2.438 5.628-3.655 8.822-3.655m0 3.998c-2.265 0-4.394 0.882-5.996 2.483-1.911 1.911-2.797 4.656-2.367 7.342l0.739 4.629h-72.775l0.74-4.63c0.436-2.725-0.428-5.4-2.369-7.34-1.602-1.603-3.73-2.484-5.995-2.484-2.02 0-3.976 0.719-5.508 2.024l-0.074 0.063-0.077 0.06c-0.072 0.055-0.129 0.104-0.169 0.145l-25.827 25.82c-0.14 0.141-0.255 0.315-0.346 0.529l-0.101 0.234-0.129 0.221c-1.956 3.333-1.417 7.564 1.312 10.292 1.6 1.6 3.727 2.48 5.988 2.48 1.518 0 3.007-0.403 4.309-1.167l0.22-0.129 0.234-0.1c0.213-0.091 0.385-0.204 0.525-0.346l10.852-10.849 6.824-6.823v62.096c0 0.202 0.042 0.405 0.129 0.622l0.094 0.234 0.064 0.245c0.974 3.739 4.35 6.351 8.209 6.351s7.233-2.61 8.206-6.35l0.064-0.248 0.096-0.238c0.087-0.215 0.129-0.417 0.129-0.616v-22.255h57.776v22.257c0 0.201 0.042 0.403 0.128 0.617l0.096 0.237 0.064 0.247c0.973 3.739 4.348 6.351 8.207 6.351s7.235-2.611 8.208-6.351l0.064-0.245 0.094-0.234c0.088-0.219 0.13-0.422 0.13-0.622v-62.294l6.825 6.823 11.045 11.044c0.143 0.144 0.316 0.258 0.53 0.349l0.233 0.101 0.22 0.128c1.3 0.764 2.789 1.167 4.307 1.167 2.263 0 4.389-0.881 5.987-2.479 2.73-2.729 3.27-6.96 1.313-10.293l-0.129-0.221-0.1-0.234c-0.092-0.214-0.206-0.389-0.351-0.532l-25.822-25.817c-0.043-0.043-0.1-0.092-0.169-0.145l-0.077-0.06-0.073-0.063c-1.531-1.307-3.488-2.026-5.507-2.026z" fill="#262626" id="path320"/>
</g>
<g id="g322">
<g id="g324">
<path d="m608.2 425.6c-38.303 0-69.463-31.156-69.463-69.454s31.16-69.455 69.463-69.455c38.302 0 69.463 31.157 69.463 69.455s-31.161 69.454-69.463 69.454z" fill="#333" id="path326"/>
<path d="m608.2 288.69c37.26 0 67.465 30.201 67.465 67.456s-30.205 67.456-67.465 67.456-67.465-30.201-67.465-67.456 30.205-67.456 67.465-67.456m0-3.999c-39.404 0-71.463 32.055-71.463 71.454s32.059 71.454 71.463 71.454 71.463-32.055 71.463-71.454-32.059-71.454-71.463-71.454z" id="path328"/>
<path d="m608.2 288.69c37.26 0 67.465 30.201 67.465 67.456s-30.205 67.456-67.465 67.456-67.465-30.201-67.465-67.456 30.205-67.456 67.465-67.456m0 3.998c-34.996 0-63.467 28.467-63.467 63.458s28.471 63.458 63.467 63.458 63.467-28.467 63.467-63.458-28.471-63.458-63.467-63.458z" fill="#262626" id="path330"/>
</g>
<g id="g332">
<path d="m608.2 410.29c-21.704 0-40.89-13.831-47.741-34.42l-0.934-2.798 2.811 0.897c13.955 4.458 29.814 6.815 45.864 6.815 16.049 0 31.909-2.357 45.861-6.815l2.811-0.897-0.934 2.798c-6.851 20.589-26.037 34.42-47.738 34.42z" fill="#f0d0b4" id="path334"/>
<path d="m654.52 375.4c-6.457 19.4-24.747 33.395-46.318 33.395s-39.862-13.994-46.319-33.395c13.729 4.387 29.517 6.887 46.319 6.887s32.591-2.5 46.318-6.887m4.708-4.652-5.621 1.797c-13.807 4.412-29.508 6.744-45.405 6.744-15.896 0-31.598-2.332-45.407-6.745l-5.62-1.796 1.863 5.6c7.057 21.201 26.813 35.445 49.164 35.445 22.35 0 42.106-14.244 49.163-35.445l1.863-5.6z" id="path336"/>
<path d="m654.52 375.4c-6.457 19.4-24.747 33.395-46.318 33.395s-39.862-13.994-46.319-33.395c13.729 4.387 29.517 6.887 46.319 6.887s32.591-2.5 46.318-6.887m-87.526 4.624c7.584 15.629 23.474 25.772 41.208 25.772s33.623-10.144 41.207-25.771c-12.849 3.45-26.961 5.26-41.207 5.26-14.245 0-28.359-1.809-41.208-5.261z" fill="#dfb28b" id="path338"/>
</g>
<g fill="#231f20" id="g340">
<circle cx="599.11" cy="393.12" d="m 602.60799,393.12 c 0,1.93189 -1.56611,3.498 -3.498,3.498 -1.9319,0 -3.498,-1.56611 -3.498,-3.498 0,-1.9319 1.5661,-3.498 3.498,-3.498 1.93189,0 3.498,1.5661 3.498,3.498 z" id="circle342" r="3.498"/>
<circle cx="617.3" cy="393.12" d="m 620.79799,393.12 c 0,1.93189 -1.56611,3.498 -3.498,3.498 -1.93189,0 -3.498,-1.56611 -3.498,-3.498 0,-1.9319 1.56611,-3.498 3.498,-3.498 1.93189,0 3.498,1.5661 3.498,3.498 z" id="circle344" r="3.498"/>
</g>
</g>
</g>
<g id="g346">
<g id="g348">
<path d="m681.8 472.84c-0.345 0-0.673-0.178-0.857-0.484l-13.082-21.838-11.252 2.59c-0.075 0.017-0.15 0.025-0.226 0.025-0.352 0-0.684-0.185-0.863-0.497-0.222-0.38-0.168-0.857 0.131-1.18l16.261-17.614-5.538-11.537c-0.189-0.393-0.104-0.86 0.212-1.158 0.188-0.18 0.438-0.274 0.688-0.274 0.163 0 0.328 0.041 0.478 0.122l21.231 11.555 9.709-10.355c0.193-0.206 0.459-0.315 0.729-0.315 0.155 0 0.312 0.034 0.455 0.109 0.396 0.201 0.611 0.644 0.527 1.081l-4.891 25.283 13.208 4.458c0.431 0.146 0.709 0.565 0.678 1.021-0.035 0.454-0.371 0.829-0.819 0.911l-26.073 4.74 0.294 12.336c0.011 0.452-0.285 0.857-0.721 0.983-0.093 0.025-0.188 0.038-0.279 0.038z" fill="#b3b3b3" id="path350"/>
<path d="m667.28 421.88 21.911 11.926 10.236-10.921-5.057 26.144 14.035 4.736-26.914 4.894 0.315 13.189-13.456-22.46-11.962 2.753 16.722-18.113-5.83-12.148m0.001-1.999c-0.502 0-0.997 0.188-1.378 0.55-0.629 0.598-0.8 1.532-0.425 2.314l5.243 10.924-15.801 17.116c-0.595 0.644-0.7 1.601-0.26 2.358 0.362 0.626 1.027 0.996 1.728 0.996 0.149 0 0.3-0.017 0.449-0.051l10.546-2.428 12.709 21.214c0.368 0.614 1.025 0.972 1.715 0.972 0.185 0 0.372-0.025 0.556-0.079 0.872-0.252 1.464-1.061 1.442-1.968l-0.274-11.48 25.232-4.588c0.896-0.163 1.57-0.912 1.636-1.821s-0.49-1.748-1.354-2.039l-12.38-4.178 4.725-24.429c0.17-0.875-0.26-1.755-1.053-2.16-0.289-0.147-0.601-0.219-0.908-0.219-0.54 0-1.072 0.219-1.46 0.632l-9.179 9.794-20.555-11.188c-0.299-0.162-0.628-0.242-0.954-0.242z" id="path352"/>
<path d="m667.28 421.88 21.911 11.926 10.236-10.921-5.057 26.144 14.035 4.736-26.914 4.894 0.315 13.189-13.456-22.46-11.962 2.753 16.722-18.113-5.83-12.148m4.48 4.714 3.153 6.568c0.354 0.739 0.223 1.619-0.333 2.221l-12.332 13.358 5.655-1.302c0.149-0.034 0.3-0.051 0.448-0.051 0.691 0 1.348 0.36 1.715 0.972l9.562 15.96-0.134-5.614c-0.023-0.983 0.672-1.839 1.641-2.015l19.297-3.509-6.699-2.261c-0.948-0.319-1.514-1.291-1.324-2.273l3.742-19.344-5.501 5.868c-0.388 0.414-0.92 0.632-1.459 0.632-0.325 0-0.653-0.08-0.954-0.243l-16.477-8.967z" fill="#808080" id="path354"/>
</g>
<g id="g356">
<path d="m682.4 449.77c-2.513 0-4.555-2.042-4.555-4.555s2.042-4.556 4.555-4.556 4.558 2.043 4.558 4.556-2.046 4.555-4.558 4.555z" id="path358"/>
<path d="m682.4 441.66c1.964 0 3.557 1.593 3.557 3.556 0 1.964-1.593 3.557-3.557 3.557s-3.557-1.593-3.557-3.557c0.001-1.963 1.594-3.556 3.557-3.556m0-1.999c-3.063 0-5.556 2.492-5.556 5.555s2.492 5.556 5.556 5.556 5.556-2.492 5.556-5.556c0-3.063-2.492-5.555-5.556-5.555z" fill="#666" id="path360"/>
</g>
</g>
</g>
</g>
<g class="sprite" id="ninja-quarterstaff" transform="translate(0)">
<ellipse cx="375.56" cy="530.21" d="m 466.013,530.21002 c 0,17.66152 -40.49719,31.979 -90.453,31.979 -49.95582,0 -90.45301,-14.31748 -90.45301,-31.979 0,-17.66151 40.49719,-31.979 90.45301,-31.979 49.95581,0 90.453,14.31749 90.453,31.979 z" fill="#4d4d4d" id="ellipse364" rx="90.453" ry="31.979"/>
<g id="g366">
<g id="g368">
<g id="g370">
<path d="m411.64 542.61c-6.548 0-12.276-4.4-13.978-10.718-0.342-0.889-0.514-1.805-0.514-2.729v-16.26h-45.784v16.263c0 0.925-0.172 1.841-0.514 2.729-1.701 6.317-7.43 10.718-13.978 10.718s-12.281-4.4-13.982-10.72c-0.339-0.891-0.509-1.807-0.509-2.728v-47.821l-7.634 7.634c-0.651 0.653-1.423 1.18-2.291 1.569-2.197 1.265-4.696 1.931-7.239 1.931-3.865 0-7.498-1.504-10.228-4.236-4.63-4.63-5.57-11.795-2.308-17.461 0.386-0.871 0.914-1.642 1.574-2.299l25.822-25.818c0.238-0.239 0.486-0.453 0.747-0.655 2.541-2.165 5.877-3.394 9.322-3.394 3.865 0 7.5 1.506 10.232 4.24 2.719 2.715 4.223 6.412 4.234 10.215h81.518v76.095c0 0.925-0.172 1.839-0.509 2.724-1.7 6.321-7.433 10.724-13.981 10.724z" fill="#333" id="path372"/>
<path d="m330.14 440.62c3.193 0 6.385 1.218 8.822 3.654 2.943 2.942 4.1 6.983 3.489 10.801h81.677v74.095c0 0.737-0.149 1.445-0.417 2.11-1.398 5.37-6.267 9.341-12.076 9.341s-10.679-3.971-12.077-9.341c-0.267-0.665-0.417-1.373-0.417-2.11v-18.259h-49.78v18.259c0 0.737-0.15 1.445-0.417 2.11-1.398 5.37-6.267 9.341-12.076 9.341s-10.678-3.971-12.078-9.341c-0.266-0.665-0.416-1.373-0.416-2.11v-52.644l-11.045 11.045c-0.522 0.521-1.129 0.916-1.788 1.198-1.948 1.144-4.14 1.716-6.33 1.716-3.19 0-6.379-1.215-8.815-3.65-4.108-4.107-4.744-10.357-1.935-15.143 0.281-0.66 0.676-1.266 1.199-1.788l25.825-25.821c0.175-0.176 0.362-0.335 0.554-0.483 2.331-1.986 5.216-2.98 8.101-2.98m0-3.997c-3.887 0-7.655 1.374-10.622 3.873-0.316 0.248-0.6 0.499-0.864 0.764l-25.821 25.817c-0.806 0.807-1.458 1.747-1.94 2.801-3.654 6.438-2.57 14.539 2.676 19.784 3.109 3.108 7.243 4.82 11.642 4.82 2.858 0 5.67-0.741 8.146-2.146 1.054-0.484 1.994-1.136 2.797-1.938l4.223-4.222v42.993c0 1.135 0.204 2.259 0.606 3.347 1.969 7.138 8.467 12.103 15.885 12.103s13.914-4.964 15.882-12.1c0.404-1.088 0.609-2.214 0.609-3.35v-14.261h41.784v14.261c0 1.136 0.205 2.261 0.608 3.349 1.968 7.137 8.466 12.101 15.884 12.101 7.417 0 13.914-4.963 15.883-12.099 0.403-1.087 0.608-2.212 0.608-3.351v-78.093h-81.647c-0.447-3.604-2.076-7.016-4.69-9.63-3.112-3.11-7.249-4.823-11.649-4.823z" id="path374"/>
<path d="m330.14 440.62c3.193 0 6.385 1.218 8.822 3.654 2.943 2.942 4.1 6.983 3.489 10.801h81.677v74.095c0 0.737-0.149 1.445-0.417 2.11-1.398 5.37-6.267 9.341-12.076 9.341s-10.679-3.971-12.077-9.341c-0.267-0.665-0.417-1.373-0.417-2.11v-18.259h-49.78v18.259c0 0.737-0.15 1.445-0.417 2.11-1.398 5.37-6.267 9.341-12.076 9.341s-10.678-3.971-12.078-9.341c-0.266-0.665-0.416-1.373-0.416-2.11v-52.644l-11.045 11.045c-0.522 0.521-1.129 0.916-1.788 1.198-1.948 1.144-4.139 1.716-6.33 1.716-3.19 0-6.379-1.215-8.815-3.65-4.108-4.107-4.744-10.357-1.935-15.143 0.281-0.66 0.676-1.266 1.199-1.788l25.825-25.821c0.175-0.176 0.362-0.335 0.554-0.483 2.331-1.986 5.216-2.98 8.101-2.98m0 3.998c-2.02 0-3.976 0.719-5.509 2.024l-0.074 0.063-0.077 0.059c-0.088 0.068-0.139 0.114-0.165 0.141l-25.829 25.826c-0.144 0.144-0.257 0.316-0.348 0.528l-0.101 0.235-0.129 0.221c-1.956 3.332-1.416 7.563 1.313 10.292 1.599 1.6 3.726 2.479 5.988 2.479 1.517 0 3.006-0.403 4.307-1.166l0.217-0.127 0.231-0.1c0.218-0.093 0.394-0.208 0.538-0.352l11.044-11.044 6.824-6.824v62.295c0 0.202 0.042 0.408 0.13 0.627l0.093 0.232 0.063 0.242c0.975 3.74 4.351 6.352 8.209 6.352 3.859 0 7.234-2.611 8.208-6.35l0.064-0.246 0.095-0.236c0.087-0.218 0.13-0.421 0.13-0.621v-22.257h57.776v22.257c0 0.201 0.042 0.405 0.13 0.623l0.094 0.235 0.064 0.244c0.974 3.739 4.349 6.351 8.208 6.351 3.858 0 7.233-2.611 8.207-6.351l0.064-0.247 0.096-0.237c0.086-0.214 0.128-0.416 0.128-0.618v-70.097h-82.367l0.74-4.629c0.436-2.726-0.427-5.402-2.368-7.343-1.6-1.599-3.729-2.481-5.994-2.481z" fill="#262626" id="path376"/>
</g>
<g id="g378">
<path d="m393.17 492.48c-3.865 0-7.499-1.504-10.229-4.236-4.634-4.631-5.572-11.803-2.301-17.476 0.388-0.862 0.913-1.63 1.564-2.28l25.824-25.821c0.236-0.236 0.489-0.456 0.749-0.654 2.539-2.166 5.877-3.393 9.32-3.393 3.865 0 7.501 1.503 10.234 4.238 5.302 5.3 5.645 13.922 0.784 19.631-0.144 0.186-0.353 0.431-0.584 0.662l-25.835 25.831c-0.651 0.653-1.424 1.181-2.294 1.568-2.192 1.264-4.691 1.93-7.232 1.93z" fill="#333" id="path380"/>
<path d="m418.1 440.62c3.192 0 6.385 1.218 8.822 3.654 4.639 4.639 4.856 12.012 0.674 16.921-0.148 0.191-0.308 0.378-0.482 0.554l-25.825 25.822c-0.522 0.521-1.129 0.916-1.788 1.198-1.948 1.144-4.139 1.716-6.329 1.716-3.19 0-6.38-1.215-8.815-3.65-4.108-4.107-4.743-10.357-1.935-15.143 0.281-0.66 0.677-1.266 1.199-1.788l25.824-25.821c0.176-0.176 0.362-0.335 0.555-0.483 2.329-1.986 5.215-2.98 8.1-2.98m0-3.997c-3.888 0-7.657 1.375-10.624 3.875-0.313 0.247-0.596 0.496-0.858 0.758l-25.823 25.821c-0.807 0.807-1.459 1.748-1.941 2.801-3.654 6.438-2.569 14.54 2.677 19.784 3.108 3.108 7.243 4.821 11.642 4.821 2.858 0 5.669-0.741 8.145-2.146 1.054-0.483 1.993-1.134 2.797-1.937l25.827-25.824c0.265-0.267 0.511-0.545 0.756-0.855 5.475-6.495 5.065-16.261-0.946-22.273-3.115-3.112-7.252-4.825-11.652-4.825z" id="path382"/>
<path d="m418.1 440.62c3.192 0 6.386 1.218 8.822 3.654 4.639 4.639 4.856 12.012 0.674 16.921-0.148 0.191-0.308 0.378-0.482 0.554l-25.825 25.822c-0.522 0.521-1.129 0.916-1.788 1.198-1.948 1.144-4.139 1.716-6.329 1.716-3.19 0-6.38-1.215-8.815-3.65-4.108-4.107-4.743-10.357-1.935-15.143 0.281-0.66 0.677-1.266 1.199-1.788l25.824-25.821c0.176-0.176 0.362-0.335 0.555-0.483 2.329-1.986 5.215-2.98 8.1-2.98m0 3.998c-2.02 0-3.976 0.719-5.508 2.024l-0.074 0.063-0.076 0.06c-0.072 0.056-0.13 0.104-0.17 0.146l-25.825 25.821c-0.144 0.145-0.258 0.317-0.348 0.528l-0.101 0.235-0.13 0.221c-1.955 3.332-1.415 7.563 1.313 10.292 1.6 1.6 3.727 2.479 5.989 2.479 1.517 0 3.006-0.403 4.306-1.166l0.218-0.127 0.232-0.1c0.217-0.093 0.393-0.208 0.537-0.353l25.823-25.82c0.036-0.036 0.089-0.099 0.149-0.176l0.057-0.073 0.06-0.07c2.849-3.344 2.647-8.396-0.458-11.501-1.6-1.601-3.73-2.483-5.994-2.483z" fill="#262626" id="path384"/>
</g>
</g>
<g id="g386">
<path d="m283.56 504.87c-2.816 0-5.286-1.997-5.869-4.749l-0.418-1.953c-0.686-3.236 1.385-6.426 4.617-7.114l184.43-39.23c0.409-0.086 0.829-0.131 1.245-0.131 2.814 0 5.284 1.997 5.869 4.748l0.415 1.952c0.332 1.563 0.034 3.162-0.84 4.512-0.874 1.347-2.217 2.271-3.776 2.603l-184.41 39.22c-0.409 0.086-0.829 0.13-1.245 0.13z" fill="#8a5d3b" id="path388"/>
<path d="m467.57 452.69c2.307 0 4.395 1.615 4.893 3.957l0.415 1.953c0.572 2.688-1.159 5.355-3.848 5.928l-184.43 39.23c-0.347 0.074-0.694 0.109-1.036 0.109-2.307 0-4.394-1.615-4.892-3.957l-0.416-1.954c-0.572-2.688 1.159-5.355 3.848-5.928l184.43-39.23c0.347-0.073 0.694-0.109 1.035-0.109m0.001-1.999c-0.486 0-0.975 0.052-1.452 0.153l-184.43 39.231c-3.772 0.803-6.189 4.525-5.387 8.299l0.416 1.954c0.683 3.21 3.563 5.54 6.847 5.54 0.486 0 0.974-0.052 1.452-0.153l184.43-39.232c3.773-0.803 6.189-4.526 5.387-8.299l-0.415-1.953c-0.684-3.21-3.562-5.54-6.847-5.54z" fill="#231f20" id="path390"/>
<path d="m467.57 452.69c2.307 0 4.395 1.615 4.893 3.957l0.415 1.953c0.572 2.688-1.159 5.355-3.848 5.928l-184.43 39.23c-0.347 0.074-0.694 0.109-1.036 0.109-2.307 0-4.394-1.615-4.892-3.957l-0.416-1.954c-0.572-2.688 1.159-5.355 3.848-5.928l184.43-39.23c0.347-0.073 0.694-0.109 1.035-0.109m0.001 1.999c-0.207 0-0.416 0.021-0.62 0.065l-184.43 39.231c-1.617 0.344-2.652 1.939-2.309 3.557l0.416 1.954c0.292 1.376 1.528 2.374 2.937 2.374 0.207 0 0.416-0.021 0.62-0.065l184.43-39.24c0.778-0.166 1.448-0.629 1.886-1.304s0.589-1.475 0.423-2.253l-0.415-1.954c-0.293-1.375-1.527-2.373-2.937-2.373z" fill="#603813" id="path392"/>
</g>
<g id="g394">
<g id="g396">
<path d="m371.54 477.43c-38.302 0-69.465-31.158-69.465-69.456s31.163-69.456 69.465-69.456 69.463 31.158 69.463 69.456-31.161 69.456-69.463 69.456z" fill="#333" id="path398"/>
<path d="m371.54 340.52c37.26 0 67.465 30.201 67.465 67.457 0 37.255-30.205 67.456-67.465 67.456s-67.465-30.201-67.465-67.456c0-37.256 30.205-67.457 67.465-67.457m0-3.998c-39.405 0-71.463 32.055-71.463 71.455 0 39.399 32.058 71.454 71.463 71.454 39.404 0 71.463-32.055 71.463-71.454 0-39.401-32.059-71.455-71.463-71.455z" id="path400"/>
<path d="m371.54 340.52c37.26 0 67.465 30.201 67.465 67.457 0 37.255-30.205 67.456-67.465 67.456s-67.465-30.201-67.465-67.456c0-37.256 30.205-67.457 67.465-67.457m0 3.998c-34.996 0-63.468 28.468-63.468 63.459s28.472 63.458 63.468 63.458 63.467-28.467 63.467-63.458-28.471-63.459-63.467-63.459z" fill="#262626" id="path402"/>
</g>
<g id="g404">
<path d="m371.54 462.12c-21.703 0-40.889-13.831-47.741-34.421l-0.933-2.798 2.811 0.896c13.96 4.46 29.819 6.816 45.863 6.816 16.046 0 31.905-2.356 45.863-6.816l2.81-0.896-0.933 2.798c-6.851 20.59-26.038 34.421-47.74 34.421z" fill="#f0d0b4" id="path406"/>
<path d="m417.86 427.23c-6.456 19.399-24.747 33.395-46.317 33.395-21.571 0-39.862-13.995-46.319-33.395 13.728 4.386 29.516 6.887 46.319 6.887 16.802-0.001 32.591-2.502 46.317-6.887m4.708-4.653-5.62 1.796c-13.81 4.413-29.511 6.745-45.405 6.745s-31.595-2.332-45.406-6.745l-5.621-1.795 1.863 5.599c7.056 21.201 26.813 35.445 49.164 35.445 22.35 0 42.106-14.244 49.162-35.446l1.863-5.599z" id="path408"/>
<path d="m417.86 427.23c-6.456 19.399-24.747 33.395-46.317 33.395-21.571 0-39.862-13.995-46.319-33.395 13.728 4.386 29.516 6.887 46.319 6.887 16.802-0.001 32.591-2.502 46.317-6.887m-87.525 4.624c7.583 15.629 23.473 25.772 41.208 25.772 17.734 0 33.623-10.144 41.206-25.772-12.85 3.451-26.963 5.261-41.206 5.261-14.243-0.001-28.357-1.81-41.208-5.261z" fill="#dfb28b" id="path410"/>
</g>
<g fill="#231f20" id="g412">
<circle cx="362.45" cy="444.95" d="m 365.94801,444.95001 c 0,1.93189 -1.56611,3.498 -3.498,3.498 -1.93189,0 -3.498,-1.56611 -3.498,-3.498 0,-1.93189 1.56611,-3.498 3.498,-3.498 1.93189,0 3.498,1.56611 3.498,3.498 z" id="circle414" r="3.498"/>
<circle cx="380.64" cy="444.95" d="m 384.13801,444.95001 c 0,1.93189 -1.5661,3.498 -3.498,3.498 -1.93189,0 -3.498,-1.56611 -3.498,-3.498 0,-1.93189 1.56611,-3.498 3.498,-3.498 1.9319,0 3.498,1.56611 3.498,3.498 z" id="circle416" r="3.498"/>
</g>
</g>
</g>
</g>
<g class="sprite" id="ninja-dagger" transform="translate(0)">
<ellipse cx="229.38" cy="329.79" d="m 319.83301,329.79001 c 0,17.66151 -40.49719,31.979 -90.45301,31.979 -49.95581,0 -90.453,-14.31749 -90.453,-31.979 0,-17.66152 40.49719,-31.979 90.453,-31.979 49.95582,0 90.45301,14.31748 90.45301,31.979 z" fill="#4d4d4d" id="ellipse420" rx="90.453" ry="31.979"/>
<g id="g422">
<g id="g424">
<g id="g426">
<g id="g428">
<path d="m211.02 346.6c-3.821 0-7.549-1.54-10.249-4.231-0.742-0.605-1.351-1.315-1.812-2.113l-18.26-31.622c-0.17-0.299-0.313-0.593-0.435-0.892-2.934-6.167-1.03-13.61 4.433-17.7v-8.399l-18.955 5.077c-0.628 0.17-1.287 0.255-1.952 0.255-0.275 0-0.547-0.015-0.816-0.042-6.54-0.006-12.288-4.416-13.977-10.73-1.695-6.322 1.073-13.003 6.741-16.281 0.769-0.553 1.61-0.956 2.497-1.196l35.282-9.451c0.313-0.085 0.64-0.147 0.965-0.193 0.775-0.143 1.656-0.224 2.53-0.224 4.919 0 9.458 2.486 12.114 6.561h79.325v28.429c1.952 0.721 3.73 1.854 5.205 3.33 5.291 5.288 5.645 13.884 0.814 19.593-0.205 0.266-0.412 0.499-0.632 0.717l-5.974 5.975-1.208 1.208-18.635 18.631c-0.648 0.653-1.421 1.182-2.294 1.569-2.194 1.264-4.693 1.931-7.236 1.931-3.865 0-7.497-1.504-10.229-4.235-4.588-4.59-5.551-11.667-2.393-17.31h-27.878l6.072 10.515c0.462 0.796 0.773 1.679 0.924 2.624 1.681 6.317-1.08 12.992-6.75 16.267-2.198 1.267-4.693 1.937-7.217 1.937z" fill="#333" id="path430"/>
<path d="m197.01 250.86c4.568 0 8.808 2.525 10.982 6.562h78.458v27.9c2.121 0.529 4.131 1.613 5.791 3.272 4.639 4.638 4.857 12.012 0.674 16.921-0.148 0.193-0.308 0.379-0.483 0.553l-5.982 5.982-1.208 1.208-18.636 18.633c-0.521 0.521-1.127 0.916-1.788 1.196-1.948 1.144-4.141 1.717-6.331 1.717-3.19 0-6.378-1.215-8.813-3.65-4.108-4.107-4.744-10.355-1.935-15.144 0.282-0.657 0.677-1.265 1.198-1.785l0.967-0.967h-35.377l7.802 13.513c0.369 0.638 0.593 1.326 0.694 2.035 1.475 5.351-0.757 11.223-5.787 14.127-1.963 1.133-4.105 1.671-6.219 1.671-3.303 0-6.535-1.313-8.912-3.723-0.563-0.443-1.046-0.98-1.416-1.619l-18.262-31.626c-0.124-0.215-0.228-0.437-0.322-0.661-2.695-5.665-0.751-12.496 4.588-15.884v-12.052l-21.472 5.752c-0.477 0.128-0.958 0.188-1.438 0.188-0.238 0-0.475-0.015-0.711-0.043h-0.088c-5.516 0-10.565-3.666-12.06-9.248-1.504-5.611 1.071-11.341 5.896-14.081 0.574-0.43 1.219-0.758 1.933-0.949l35.277-9.451c0.24-0.064 0.481-0.108 0.722-0.142 0.758-0.137 1.513-0.205 2.258-0.205m0.001-3.998c-0.001 0-0.001 0 0 0-0.967 0-1.94 0.087-2.895 0.257-0.4 0.059-0.767 0.133-1.119 0.228l-35.276 9.451c-1.098 0.294-2.132 0.783-3.079 1.454-6.385 3.748-9.498 11.308-7.577 18.473 1.915 7.149 8.402 12.155 15.801 12.209 0.307 0.028 0.616 0.043 0.919 0.043 0.839 0 1.671-0.109 2.473-0.324l16.439-4.404v4.834c-5.577 4.744-7.42 12.742-4.241 19.524 0.158 0.369 0.324 0.704 0.506 1.021l18.266 31.633c0.567 0.982 1.306 1.854 2.199 2.595 3.067 3.02 7.277 4.746 11.59 4.746 2.874 0 5.715-0.763 8.217-2.206 6.425-3.71 9.569-11.256 7.705-18.421-0.195-1.146-0.582-2.225-1.151-3.207l-4.337-7.512h21.372c-1.875 5.794-0.417 12.284 4.024 16.725 3.108 3.108 7.242 4.821 11.64 4.821 2.857 0 5.667-0.741 8.143-2.146 1.055-0.481 1.997-1.133 2.802-1.938l18.636-18.633 1.208-1.209 5.981-5.981c0.257-0.255 0.511-0.541 0.762-0.86 5.469-6.496 5.058-16.258-0.953-22.268-1.345-1.345-2.909-2.44-4.62-3.245v-29.099h-80.282c-3.08-4.097-7.928-6.561-13.153-6.561z" id="path432"/>
<path d="m197.01 250.86c4.568 0 8.808 2.525 10.982 6.562h78.458v27.9c2.121 0.529 4.131 1.613 5.791 3.272 4.639 4.638 4.857 12.012 0.674 16.921-0.148 0.193-0.308 0.379-0.483 0.553l-5.982 5.982-1.208 1.208-18.636 18.633c-0.521 0.521-1.127 0.916-1.788 1.196-1.948 1.144-4.14 1.717-6.331 1.717-3.19 0-6.378-1.215-8.813-3.65-4.108-4.107-4.744-10.355-1.935-15.144 0.282-0.657 0.677-1.265 1.198-1.785l0.967-0.967h-35.377l7.802 13.513c0.369 0.638 0.593 1.326 0.694 2.035 1.475 5.351-0.757 11.223-5.787 14.127-1.963 1.133-4.105 1.671-6.219 1.671-3.303 0-6.536-1.313-8.912-3.723-0.563-0.443-1.046-0.98-1.416-1.619l-18.262-31.626c-0.124-0.215-0.228-0.437-0.322-0.661-2.695-5.665-0.751-12.496 4.588-15.884v-12.052l-21.472 5.752c-0.477 0.128-0.958 0.188-1.438 0.188-0.238 0-0.475-0.015-0.711-0.043h-0.087c-5.516 0-10.565-3.666-12.061-9.248-1.504-5.611 1.071-11.341 5.896-14.081 0.574-0.43 1.219-0.758 1.933-0.949l35.277-9.451c0.24-0.064 0.481-0.108 0.722-0.142 0.758-0.138 1.513-0.205 2.258-0.205m0.001 3.998c-0.512 0-1.027 0.047-1.533 0.14l-0.087 0.016-0.088 0.012c-0.126 0.018-0.197 0.033-0.234 0.043l-35.278 9.451c-0.195 0.053-0.383 0.147-0.572 0.289l-0.202 0.15-0.219 0.125c-3.359 1.908-5.008 5.843-4.009 9.57 0.991 3.701 4.363 6.285 8.199 6.285h0.06l0.251-0.002 0.25 0.03c0.082 0.01 0.162 0.015 0.237 0.015 0.143 0 0.274-0.017 0.403-0.051l21.473-5.752 5.032-1.348v19.459l-1.856 1.178c-3.614 2.293-4.956 6.932-3.12 10.791l0.042 0.087 0.037 0.09c0.047 0.113 0.08 0.176 0.098 0.208l18.259 31.62c0.101 0.174 0.241 0.331 0.428 0.479l0.196 0.154 0.175 0.178c1.587 1.609 3.798 2.532 6.066 2.532 1.474 0 2.933-0.393 4.221-1.136 3.341-1.929 4.958-5.877 3.931-9.602l-0.067-0.245-0.036-0.251c-0.033-0.231-0.098-0.428-0.197-0.6l-7.804-13.516-3.462-5.997h51.955l-6.828 6.825-0.967 0.967c-0.143 0.143-0.257 0.317-0.351 0.535l-0.099 0.23-0.126 0.216c-1.956 3.332-1.416 7.565 1.313 10.293 1.599 1.6 3.725 2.479 5.987 2.479 1.518 0 3.007-0.403 4.307-1.166l0.223-0.131 0.238-0.102c0.21-0.089 0.381-0.201 0.523-0.344l18.636-18.633 1.207-1.207 5.982-5.983c0.04-0.039 0.08-0.082 0.139-0.16l0.063-0.081 0.066-0.077c2.85-3.344 2.648-8.396-0.458-11.501-1.081-1.08-2.441-1.849-3.933-2.221l-3.029-0.756v-27.024h-76.848l-1.132-2.102c-1.482-2.75-4.341-4.459-7.462-4.459z" fill="#262626" id="path434"/>
</g>
<g id="g436">
<path d="m255.49 294.83c-3.863 0-7.496-1.503-10.226-4.235-4.629-4.627-5.57-11.787-2.309-17.458 0.385-0.867 0.915-1.641 1.573-2.298l25.824-25.822c0.241-0.239 0.488-0.453 0.744-0.65 2.543-2.17 5.879-3.398 9.324-3.398 3.867 0 7.502 1.505 10.234 4.24 5.302 5.3 5.646 13.924 0.785 19.63-0.142 0.189-0.36 0.443-0.602 0.68l-25.816 25.814c-0.661 0.658-1.433 1.188-2.298 1.57-2.193 1.262-4.692 1.927-7.233 1.927z" fill="#333" id="path438"/>
<path d="m280.42 242.97c3.192 0 6.384 1.217 8.821 3.654 4.639 4.639 4.857 12.013 0.674 16.921-0.148 0.192-0.308 0.379-0.483 0.555l-25.824 25.821c-0.522 0.522-1.129 0.917-1.788 1.198-1.949 1.144-4.139 1.716-6.33 1.716-3.19 0-6.38-1.215-8.815-3.65-4.108-4.106-4.744-10.356-1.935-15.143 0.281-0.659 0.676-1.266 1.198-1.788l25.825-25.821c0.176-0.175 0.362-0.334 0.555-0.482 2.331-1.987 5.217-2.981 8.102-2.981m0-3.997c-3.888 0-7.656 1.375-10.623 3.875-0.311 0.244-0.59 0.49-0.853 0.751l-25.832 25.829c-0.807 0.808-1.458 1.748-1.94 2.801-3.654 6.438-2.569 14.541 2.677 19.784 3.108 3.108 7.243 4.821 11.641 4.821 2.858 0 5.669-0.741 8.145-2.146 1.055-0.484 1.996-1.136 2.8-1.94l25.824-25.82c0.264-0.264 0.513-0.546 0.76-0.86 5.471-6.495 5.061-16.258-0.951-22.27-3.111-3.112-7.248-4.825-11.648-4.825z" id="path440"/>
<path d="m280.42 242.97c3.192 0 6.384 1.217 8.821 3.654 4.639 4.639 4.857 12.013 0.674 16.921-0.148 0.192-0.308 0.379-0.483 0.555l-25.824 25.821c-0.522 0.522-1.129 0.917-1.788 1.198-1.949 1.144-4.139 1.716-6.33 1.716-3.19 0-6.38-1.215-8.815-3.65-4.108-4.106-4.744-10.356-1.935-15.143 0.281-0.659 0.676-1.266 1.198-1.788l25.825-25.821c0.176-0.175 0.362-0.334 0.555-0.482 2.331-1.987 5.217-2.981 8.102-2.981m0 3.998c-2.02 0-3.976 0.719-5.509 2.025l-0.074 0.063-0.077 0.06c-0.074 0.057-0.134 0.108-0.178 0.151l-25.817 25.814c-0.143 0.143-0.257 0.315-0.347 0.527l-0.101 0.236-0.13 0.221c-1.956 3.332-1.416 7.564 1.313 10.292 1.6 1.6 3.726 2.48 5.989 2.48 1.517 0 3.006-0.403 4.307-1.166l0.219-0.129 0.233-0.1c0.215-0.092 0.389-0.206 0.532-0.349l25.824-25.822c0.041-0.04 0.089-0.098 0.145-0.17l0.06-0.077 0.063-0.074c2.849-3.344 2.647-8.396-0.458-11.501-1.6-1.599-3.729-2.481-5.994-2.481z" fill="#262626" id="path442"/>
</g>
</g>
<g id="g444">
<g id="g446">
<path d="m229.79 283.28c-38.301 0-69.462-31.157-69.462-69.455 0-38.299 31.161-69.456 69.462-69.456 38.304 0 69.465 31.157 69.465 69.456 0 38.298-31.161 69.455-69.465 69.455z" fill="#333" id="path448"/>
<path d="m229.79 146.37c37.26 0 67.465 30.201 67.465 67.457 0 37.255-30.205 67.457-67.465 67.457s-67.465-30.202-67.465-67.457c0-37.256 30.205-67.457 67.465-67.457m0-3.998c-39.405 0-71.462 32.054-71.462 71.454s32.058 71.455 71.462 71.455 71.463-32.054 71.463-71.455c-0.001-39.4-32.059-71.454-71.463-71.454z" id="path450"/>
<path d="m229.79 146.37c37.26 0 67.465 30.201 67.465 67.457 0 37.255-30.205 67.457-67.465 67.457s-67.465-30.202-67.465-67.457c0-37.256 30.205-67.457 67.465-67.457m0 3.997c-34.996 0-63.467 28.468-63.467 63.459 0 34.992 28.471 63.459 63.467 63.459s63.468-28.468 63.468-63.459c-0.001-34.991-28.472-63.459-63.468-63.459z" fill="#262626" id="path452"/>
</g>
<g id="g454">
<path d="m229.79 267.97c-21.704 0-40.89-13.833-47.741-34.419l-0.932-2.801 2.809 0.899c13.952 4.458 29.813 6.814 45.864 6.814 16.053 0 31.912-2.355 45.862-6.814l2.809-0.899-0.932 2.801c-6.851 20.585-26.037 34.419-47.739 34.419z" fill="#f0d0b4" id="path456"/>
<path d="m276.11 233.08c-6.457 19.4-24.747 33.395-46.318 33.395s-39.862-13.994-46.319-33.395c13.729 4.387 29.516 6.886 46.319 6.886 16.802 0 32.59-2.499 46.318-6.886m4.708-4.652-5.621 1.796c-13.806 4.412-29.506 6.744-45.406 6.744-15.898 0-31.6-2.332-45.406-6.744l-5.621-1.796 1.864 5.599c7.056 21.201 26.813 35.446 49.164 35.446 22.35 0 42.107-14.245 49.163-35.446l1.863-5.599z" id="path458"/>
<path d="m276.11 233.08c-6.457 19.4-24.747 33.395-46.318 33.395s-39.862-13.994-46.319-33.395c13.729 4.387 29.516 6.886 46.319 6.886 16.802 0 32.59-2.499 46.318-6.886m-87.526 4.625c7.584 15.628 23.473 25.772 41.208 25.772s33.623-10.144 41.207-25.772c-12.846 3.45-26.96 5.26-41.207 5.26-14.246-0.001-28.361-1.811-41.208-5.26z" fill="#dfb28b" id="path460"/>
</g>
<g fill="#231f20" id="g462">
<circle cx="220.7" cy="250.8" d="m 224.198,250.8 c 0,1.9319 -1.56611,3.498 -3.498,3.498 -1.9319,0 -3.498,-1.5661 -3.498,-3.498 0,-1.93189 1.5661,-3.498 3.498,-3.498 1.93189,0 3.498,1.56611 3.498,3.498 z" id="circle464" r="3.498"/>
<circle cx="238.89" cy="250.8" d="m 242.388,250.8 c 0,1.9319 -1.56611,3.498 -3.498,3.498 -1.93189,0 -3.498,-1.5661 -3.498,-3.498 0,-1.93189 1.56611,-3.498 3.498,-3.498 1.93189,0 3.498,1.56611 3.498,3.498 z" id="circle466" r="3.498"/>
</g>
</g>
</g>
<g id="g468">
<g id="g470">
<rect fill="#8a5d3b" height="10.047" id="rect472" stroke="#231f20" stroke-linecap="round" stroke-linejoin="round" stroke-width="1.9988" transform="matrix(.816 -.578 .578 .816 -125.4 140.96)" width="18.779" x="149.33" y="262.45"/>
<g id="g474">
<path d="m137.99 279.7c-0.254 0-0.507-0.097-0.7-0.286-0.345-0.339-0.399-0.877-0.125-1.276l7.78-11.4-47.357-83.84c-0.25-0.446-0.125-1.011 0.294-1.307 0.175-0.124 0.376-0.183 0.577-0.183 0.28 0 0.555 0.117 0.752 0.341l63.392 72.474 13.337-3.554c0.086-0.023 0.173-0.035 0.259-0.035 0.378 0 0.735 0.218 0.902 0.575 0.206 0.44 0.068 0.961-0.327 1.241l-19.102 13.532-19.101 13.528c-0.175 0.124-0.377 0.183-0.578 0.183z" fill="#b3b3b3" id="path476"/>
<path d="m98.454 182.41 63.8 72.942 13.937-3.715-19.102 13.531-19.101 13.529 8.126-11.912-47.66-84.375m-0.001-1.999c-0.401 0-0.805 0.121-1.154 0.368-0.836 0.592-1.089 1.722-0.585 2.614l47.048 83.294-7.425 10.885c-0.545 0.799-0.439 1.874 0.25 2.552 0.386 0.379 0.892 0.573 1.401 0.573 0.402 0 0.807-0.121 1.155-0.368l19.101-13.529 19.102-13.531c0.79-0.56 1.065-1.604 0.654-2.48-0.335-0.715-1.049-1.15-1.809-1.15-0.171 0-0.344 0.022-0.515 0.068l-12.74 3.38-62.982-72.01c-0.392-0.449-0.946-0.683-1.505-0.683z" id="path478"/>
<path d="m98.454 182.41 63.8 72.942 13.937-3.715-19.102 13.531-19.101 13.529 8.126-11.912-47.66-84.375m11.323 15.982 38.077 67.412c0.375 0.663 0.34 1.48-0.089 2.109l-1.863 2.73 10.031-7.104 10.031-7.106-3.196 0.852c-0.17 0.045-0.343 0.067-0.515 0.067-0.568 0-1.12-0.243-1.504-0.683l-50.972-58.277z" fill="#808080" id="path480"/>
</g>
</g>
<polygon fill="#666" id="polygon482" points="98.454 182.41 164.25 257.35 156.7 263.01"/>
</g>
</g>
</g>
<g class="sprite" id="ninja-nunchaku" transform="translate(0)">
<ellipse cx="107.87" cy="477.67" d="m 198.32301,477.67001 c 0,17.66152 -40.49719,31.979 -90.45301,31.979 -49.955811,0 -90.453,-14.31748 -90.453,-31.979 0,-17.66151 40.497189,-31.979 90.453,-31.979 49.95582,0 90.45301,14.31749 90.45301,31.979 z" fill="#4d4d4d" id="ellipse486" rx="90.453" ry="31.979"/>
<g id="g488">
<g id="g490">
<g id="g492">
<g id="g494">
<path d="m50.484 487.42c-6.549 0-12.279-4.402-13.981-10.72-0.337-0.888-0.512-1.806-0.512-2.731v-76.095h81.521c0.008-3.799 1.513-7.497 4.229-10.214 2.735-2.732 6.37-4.239 10.235-4.239 3.431 0 6.751 1.218 9.362 3.429 0.245 0.189 0.482 0.396 0.708 0.619l25.824 25.82c0.658 0.659 1.187 1.431 1.572 2.301 3.262 5.669 2.322 12.831-2.308 17.459-2.733 2.73-6.364 4.235-10.229 4.235-2.542 0-5.041-0.666-7.232-1.929-0.877-0.394-1.65-0.921-2.301-1.576l-7.63-7.628v23.169l8.941 8.939c0.66 0.664 1.188 1.437 1.574 2.305 3.258 5.669 2.316 12.829-2.312 17.455-2.731 2.73-6.362 4.233-10.227 4.233-2.539 0-5.034-0.666-7.228-1.924-0.872-0.388-1.647-0.917-2.305-1.574l-21.03-21.05h-42.164v16.259c0 0.926-0.175 1.844-0.512 2.731-1.703 6.319-7.433 10.721-13.98 10.721z" fill="#333" id="path496"/>
<path d="m131.98 385.42c2.885 0 5.771 0.994 8.102 2.979 0.192 0.148 0.379 0.308 0.555 0.483l25.824 25.82c0.522 0.522 0.917 1.129 1.199 1.788 2.809 4.786 2.174 11.036-1.935 15.143-2.436 2.437-5.624 3.65-8.814 3.65-2.19 0-4.382-0.572-6.331-1.716-0.659-0.282-1.266-0.677-1.788-1.198l-11.045-11.044v28.823l9.526 9.524c0.521 0.522 0.916 1.129 1.197 1.786 2.808 4.788 2.174 11.038-1.935 15.145-2.435 2.436-5.623 3.649-8.813 3.649-2.191 0-4.383-0.573-6.332-1.717-0.659-0.279-1.266-0.674-1.787-1.196l-21.63-21.63h-44.99v18.259c0 0.737-0.15 1.445-0.417 2.11-1.399 5.37-6.267 9.341-12.077 9.341s-10.678-3.971-12.077-9.341c-0.267-0.665-0.417-1.373-0.417-2.11v-74.093h81.676c-0.609-3.815 0.547-7.858 3.49-10.8 2.437-2.437 5.629-3.654 8.822-3.654m0-3.998c-4.4 0-8.537 1.714-11.648 4.826-2.615 2.612-4.243 6.023-4.691 9.628h-81.646v78.093c0 1.137 0.204 2.263 0.607 3.35 1.969 7.136 8.466 12.1 15.884 12.1s13.915-4.963 15.883-12.1c0.404-1.089 0.608-2.215 0.608-3.35v-14.261h39.338l20.462 20.46c0.803 0.805 1.746 1.457 2.802 1.939 2.476 1.403 5.286 2.145 8.144 2.145 4.397 0 8.531-1.712 11.64-4.821 5.245-5.242 6.33-13.347 2.674-19.788-0.483-1.051-1.133-1.988-1.934-2.792l-8.359-8.357v-17.517l4.221 4.221c0.804 0.803 1.744 1.454 2.798 1.938 2.477 1.405 5.288 2.146 8.147 2.146 4.398 0 8.533-1.713 11.641-4.822 5.246-5.243 6.331-13.346 2.675-19.784-0.483-1.054-1.135-1.995-1.94-2.8l-25.824-25.82c-0.263-0.263-0.545-0.512-0.859-0.759-2.966-2.499-6.735-3.875-10.622-3.875z" id="path498"/>
<path d="m131.98 385.42c2.885 0 5.771 0.994 8.101 2.979 0.192 0.148 0.379 0.308 0.555 0.483l25.824 25.82c0.522 0.522 0.917 1.129 1.199 1.788 2.809 4.786 2.174 11.036-1.935 15.143-2.436 2.437-5.624 3.65-8.814 3.65-2.19 0-4.382-0.572-6.331-1.716-0.659-0.282-1.266-0.677-1.788-1.198l-11.045-11.044v28.823l9.526 9.524c0.521 0.522 0.916 1.129 1.197 1.786 2.808 4.788 2.174 11.038-1.935 15.145-2.436 2.436-5.623 3.649-8.813 3.649-2.191 0-4.383-0.573-6.332-1.717-0.659-0.279-1.266-0.674-1.787-1.196l-21.63-21.63h-44.99v18.259c0 0.737-0.15 1.445-0.417 2.11-1.399 5.37-6.267 9.341-12.077 9.341s-10.678-3.971-12.077-9.341c-0.267-0.665-0.417-1.373-0.417-2.11v-74.093h81.676c-0.609-3.815 0.547-7.858 3.49-10.8 2.437-2.437 5.629-3.654 8.822-3.654m0 3.997c-2.265 0-4.394 0.882-5.995 2.483-1.942 1.941-2.805 4.617-2.37 7.343l0.739 4.629h-82.37v70.097c0 0.202 0.042 0.405 0.128 0.62l0.095 0.236 0.064 0.246c0.974 3.739 4.35 6.351 8.208 6.351s7.234-2.611 8.208-6.351l0.064-0.245 0.094-0.234c0.087-0.219 0.13-0.422 0.13-0.623v-22.257h50.645l1.171 1.171 21.633 21.631c0.143 0.144 0.312 0.255 0.521 0.343l0.239 0.102 0.224 0.132c1.301 0.764 2.791 1.167 4.309 1.167 2.262 0 4.387-0.881 5.985-2.479 2.729-2.729 3.269-6.962 1.313-10.296l-0.127-0.217-0.099-0.23c-0.093-0.217-0.208-0.394-0.354-0.539l-9.522-9.52-1.171-1.171v-40.129l6.824 6.823 11.045 11.044c0.142 0.143 0.318 0.258 0.536 0.351l0.231 0.1 0.217 0.127c1.301 0.764 2.79 1.167 4.308 1.167 2.262 0 4.388-0.881 5.987-2.479 2.73-2.729 3.27-6.961 1.314-10.293l-0.129-0.22-0.1-0.235c-0.091-0.213-0.205-0.386-0.348-0.529l-25.824-25.82c-0.041-0.041-0.098-0.09-0.17-0.146l-0.077-0.06-0.074-0.063c-1.532-1.307-3.488-2.027-5.508-2.027z" fill="#262626" id="path500"/>
</g>
<g id="g502">
<path d="m68.948 437.28c-2.539 0-5.036-0.666-7.229-1.928-0.874-0.39-1.647-0.917-2.3-1.571l-25.824-25.82c-0.237-0.239-0.453-0.488-0.652-0.748-4.801-5.632-4.458-14.254 0.842-19.555 2.734-2.733 6.369-4.24 10.234-4.24 3.444 0 6.783 1.228 9.4 3.459 0.184 0.139 0.434 0.354 0.672 0.591l25.824 25.82c0.656 0.657 1.182 1.427 1.567 2.292 3.268 5.671 2.327 12.835-2.307 17.465-2.729 2.732-6.362 4.236-10.227 4.236z" fill="#333" id="path504"/>
<path d="m44.02 385.42c2.886-0.001 5.771 0.993 8.102 2.979 0.192 0.148 0.379 0.308 0.554 0.483l25.825 25.82c0.522 0.522 0.917 1.129 1.199 1.788 2.809 4.786 2.174 11.036-1.935 15.143-2.435 2.436-5.624 3.65-8.814 3.65-2.191 0-4.382-0.572-6.331-1.716-0.659-0.282-1.266-0.677-1.788-1.198l-25.825-25.83c-0.176-0.175-0.335-0.361-0.483-0.554-4.183-4.909-3.965-12.282 0.674-16.92 2.438-2.436 5.63-3.653 8.822-3.653m0.001-3.998h-0.001c-4.4 0-8.537 1.714-11.648 4.826-6.011 6.008-6.422 15.771-0.952 22.267 0.25 0.317 0.501 0.603 0.769 0.868l25.817 25.814c0.804 0.803 1.744 1.454 2.798 1.938 2.477 1.404 5.289 2.146 8.147 2.146 4.398 0 8.532-1.713 11.641-4.822 5.246-5.243 6.331-13.346 2.675-19.784-0.483-1.054-1.135-1.994-1.94-2.8l-25.825-25.82c-0.26-0.261-0.542-0.511-0.859-0.759-2.966-2.498-6.735-3.874-10.622-3.874z" id="path506"/>
<path d="m44.021 385.42c2.885-0.001 5.771 0.993 8.101 2.979 0.192 0.148 0.379 0.308 0.554 0.483l25.825 25.82c0.522 0.522 0.917 1.129 1.199 1.788 2.809 4.786 2.174 11.036-1.935 15.143-2.435 2.436-5.624 3.65-8.814 3.65-2.19 0-4.381-0.572-6.33-1.716-0.659-0.282-1.266-0.677-1.788-1.198l-25.825-25.83c-0.176-0.175-0.335-0.361-0.483-0.554-4.183-4.909-3.965-12.282 0.674-16.92 2.437-2.436 5.629-3.653 8.822-3.653m0 3.997c-2.266 0-4.395 0.883-5.996 2.483-3.106 3.105-3.308 8.157-0.458 11.501l0.065 0.076 0.061 0.079c0.064 0.084 0.108 0.132 0.133 0.156l25.833 25.83c0.142 0.143 0.318 0.258 0.536 0.351l0.231 0.1 0.217 0.127c1.301 0.764 2.79 1.167 4.307 1.167 2.263 0 4.389-0.881 5.987-2.479 2.73-2.729 3.27-6.961 1.314-10.293l-0.129-0.22-0.1-0.235c-0.091-0.213-0.205-0.386-0.348-0.529l-25.825-25.82c-0.03-0.03-0.081-0.077-0.169-0.146l-0.077-0.06-0.074-0.063c-1.532-1.305-3.488-2.025-5.508-2.025z" fill="#262626" id="path508"/>
</g>
</g>
<g id="g510">
<g id="g512">
<path d="m90.35 422.23c-38.303 0-69.463-31.159-69.463-69.455 0-38.299 31.161-69.458 69.463-69.458 38.303 0 69.464 31.159 69.464 69.458 0 38.295-31.161 69.455-69.464 69.455z" fill="#333" id="path514"/>
<path d="m90.35 285.32c37.26 0 67.465 30.201 67.465 67.457s-30.205 67.457-67.465 67.457-67.465-30.201-67.465-67.457 30.205-67.457 67.465-67.457m0-3.997c-39.405 0-71.463 32.054-71.463 71.455s32.058 71.455 71.463 71.455 71.462-32.055 71.462-71.455-32.057-71.455-71.462-71.455z" id="path516"/>
<path d="m90.35 285.32c37.26 0 67.465 30.201 67.465 67.457s-30.205 67.457-67.465 67.457-67.465-30.201-67.465-67.457 30.205-67.457 67.465-67.457m0 3.998c-34.996 0-63.468 28.468-63.468 63.459s28.472 63.459 63.468 63.459 63.467-28.468 63.467-63.459-28.471-63.459-63.467-63.459z" fill="#262626" id="path518"/>
</g>
<g id="g520">
<path d="m90.351 406.92c-21.704 0-40.89-13.83-47.743-34.417l-0.931-2.799 2.811 0.897c13.956 4.457 29.814 6.813 45.863 6.813 16.046 0 31.905-2.356 45.861-6.813l2.811-0.897-0.931 2.799c-6.855 20.587-26.04 34.417-47.741 34.417z" fill="#f0d0b4" id="path522"/>
<path d="m136.67 372.03c-6.457 19.398-24.747 33.394-46.318 33.394s-39.862-13.995-46.319-33.394c13.728 4.385 29.516 6.886 46.319 6.886 16.802 0 32.59-2.501 46.318-6.886m4.708-4.651-5.62 1.795c-13.812 4.412-29.513 6.744-45.406 6.744s-31.594-2.332-45.407-6.744l-5.62-1.795 1.863 5.599c7.057 21.2 26.814 35.444 49.164 35.444 22.349 0 42.106-14.244 49.163-35.444l1.863-5.599z" id="path524"/>
<path d="m136.67 372.03c-6.457 19.398-24.747 33.394-46.318 33.394s-39.862-13.995-46.319-33.394c13.728 4.385 29.516 6.886 46.319 6.886 16.802 0 32.59-2.501 46.318-6.886m-87.525 4.624c7.583 15.628 23.473 25.771 41.208 25.771 17.734 0 33.623-10.144 41.207-25.771-12.851 3.45-26.965 5.26-41.207 5.26s-28.357-1.809-41.208-5.26z" fill="#dfb28b" id="path526"/>
</g>
<g fill="#231f20" id="g528">
<circle cx="81.254" cy="389.75" d="m 84.751998,389.75 c 0,1.93189 -1.566108,3.498 -3.498,3.498 -1.931892,0 -3.498,-1.56611 -3.498,-3.498 0,-1.93189 1.566108,-3.498 3.498,-3.498 1.931892,0 3.498,1.56611 3.498,3.498 z" id="circle530" r="3.498"/>
<circle cx="99.445" cy="389.75" d="m 102.943,389.75 c 0,1.93189 -1.56611,3.498 -3.498,3.498 -1.931892,0 -3.498,-1.56611 -3.498,-3.498 0,-1.93189 1.566108,-3.498 3.498,-3.498 1.93189,0 3.498,1.56611 3.498,3.498 z" id="circle532" r="3.498"/>
</g>
</g>
</g>
<g id="g534">
<g id="g536">
<path d="m207.34 492.94h-3.891c-1.429 0-2.593-1.163-2.593-2.593v-35.743c0-1.429 1.164-2.593 2.593-2.593h3.891c1.431 0 2.595 1.164 2.595 2.593v35.743c0 1.429-1.164 2.593-2.595 2.593z" fill="#8a5d3b" id="path538"/>
<path d="m207.34 453.01c0.876 0 1.594 0.717 1.594 1.594v35.742c0 0.877-0.717 1.594-1.594 1.594h-3.891c-0.876 0-1.594-0.717-1.594-1.594v-35.742c0-0.877 0.717-1.594 1.594-1.594h3.891m0-1.999h-3.891c-1.981 0-3.593 1.611-3.593 3.593v35.742c0 1.981 1.612 3.593 3.593 3.593h3.891c1.981 0 3.593-1.611 3.593-3.593v-35.742c0-1.982-1.612-3.593-3.593-3.593z" fill="#231f20" id="path540"/>
<path d="m207.34 453.01c0.876 0 1.594 0.717 1.594 1.594v35.742c0 0.877-0.717 1.594-1.594 1.594h-3.891c-0.876 0-1.594-0.717-1.594-1.594v-35.742c0-0.877 0.717-1.594 1.594-1.594h3.891m-0.405 1.999h-3.081v34.932h3.081v-34.932z" fill="#603813" id="path542"/>
</g>
<g id="g544">
<path d="m156.15 410.6c-0.987 0-1.906-0.572-2.338-1.457l-1.701-3.5c-0.303-0.62-0.342-1.324-0.117-1.981 0.228-0.655 0.695-1.184 1.315-1.486l32.15-15.629c0.354-0.172 0.734-0.259 1.129-0.259 0.987 0 1.906 0.571 2.338 1.457l1.701 3.5c0.624 1.283 0.088 2.841-1.198 3.467l-32.15 15.63c-0.355 0.17-0.735 0.258-1.129 0.258z" fill="#8a5d3b" id="path546"/>
<path d="m186.59 387.29c0.592 0 1.163 0.331 1.438 0.896l1.701 3.498c0.384 0.788 0.052 1.747-0.736 2.131l-32.149 15.629c-0.223 0.108-0.459 0.16-0.692 0.16-0.592 0-1.163-0.331-1.438-0.896l-1.702-3.499c-0.383-0.788-0.052-1.747 0.737-2.131l32.149-15.628c0.222-0.108 0.458-0.16 0.692-0.16m0-1.999c-0.54 0-1.082 0.125-1.567 0.362l-32.149 15.627c-1.782 0.867-2.526 3.021-1.66 4.803l1.702 3.499c0.597 1.228 1.867 2.021 3.235 2.021 0.54 0 1.082-0.125 1.567-0.361l32.148-15.628c0.862-0.42 1.509-1.15 1.823-2.059s0.256-1.884-0.163-2.745l-1.701-3.497c-0.596-1.228-1.866-2.022-3.235-2.022z" fill="#231f20" id="path548"/>
<path d="m186.59 387.29c0.592 0 1.163 0.331 1.438 0.896l1.701 3.498c0.384 0.788 0.052 1.747-0.736 2.131l-32.149 15.629c-0.223 0.108-0.459 0.16-0.692 0.16-0.592 0-1.163-0.331-1.438-0.896l-1.702-3.499c-0.383-0.788-0.052-1.747 0.737-2.131l32.149-15.628c0.222-0.108 0.458-0.16 0.692-0.16m-0.183 2.135-31.421 15.274 1.348 2.771 31.42-15.275-1.347-2.77z" fill="#603813" id="path550"/>
</g>
<g id="g552">
<g id="g554">
<path d="m205.69 450.47c-2.666 0-4.836-2.168-4.836-4.834 0-2.665 2.171-4.834 4.836-4.834s4.834 2.169 4.834 4.834c0 2.666-2.168 4.834-4.834 4.834z" fill="#ccc" id="path556"/>
<path d="m205.69 441.8c2.117 0 3.834 1.716 3.834 3.834 0 2.117-1.717 3.834-3.834 3.834-2.118 0-3.834-1.717-3.834-3.834-0.001-2.118 1.716-3.834 3.834-3.834m0-1.999c-3.216 0-5.833 2.617-5.833 5.833s2.617 5.833 5.833 5.833 5.833-2.617 5.833-5.833-2.617-5.833-5.833-5.833z" fill="#4d4d4d" id="path558"/>
</g>
<g id="g560">
<path d="m207.92 437.55c-2.666 0-4.835-2.168-4.835-4.833 0-2.666 2.169-4.833 4.835-4.833s4.833 2.167 4.833 4.833c0 2.665-2.168 4.833-4.833 4.833z" fill="#ccc" id="path562"/>
<path d="m207.92 428.88c2.117 0 3.834 1.716 3.834 3.834 0 2.117-1.717 3.834-3.834 3.834-2.118 0-3.834-1.717-3.834-3.834 0-2.118 1.716-3.834 3.834-3.834m0-1.999c-3.216 0-5.833 2.617-5.833 5.833s2.617 5.833 5.833 5.833 5.833-2.617 5.833-5.833-2.617-5.833-5.833-5.833z" fill="#4d4d4d" id="path564"/>
</g>
<g id="g566">
<path d="m214.48 426.43c-2.666 0-4.834-2.169-4.834-4.833s2.168-4.833 4.834-4.833c2.665 0 4.833 2.169 4.833 4.833s-2.168 4.833-4.833 4.833z" fill="#ccc" id="path568"/>
<path d="m214.48 417.76c2.117 0 3.834 1.716 3.834 3.834 0 2.117-1.717 3.834-3.834 3.834-2.118 0-3.834-1.717-3.834-3.834-0.001-2.119 1.716-3.834 3.834-3.834m0-1.999c-3.216 0-5.833 2.617-5.833 5.833s2.617 5.833 5.833 5.833 5.833-2.617 5.833-5.833-2.617-5.833-5.833-5.833z" fill="#4d4d4d" id="path570"/>
</g>
<g id="g572">
<path d="m221.64 415.56c-2.665 0-4.835-2.17-4.835-4.835s2.17-4.835 4.835-4.835 4.834 2.17 4.834 4.835-2.169 4.835-4.834 4.835z" fill="#ccc" id="path574"/>
<path d="m221.64 406.89c2.117 0 3.834 1.716 3.834 3.834 0 2.117-1.717 3.834-3.834 3.834-2.118 0-3.834-1.717-3.834-3.834 0-2.118 1.717-3.834 3.834-3.834m0-1.999c-3.216 0-5.833 2.617-5.833 5.833s2.617 5.833 5.833 5.833 5.833-2.617 5.833-5.833-2.616-5.833-5.833-5.833z" fill="#4d4d4d" id="path576"/>
</g>
<g id="g578">
<path d="m225.66 403.37c-2.665 0-4.832-2.167-4.832-4.832s2.167-4.834 4.832-4.834 4.834 2.169 4.834 4.834-2.169 4.832-4.834 4.832z" fill="#ccc" id="path580"/>
<path d="m225.66 394.7c2.117 0 3.834 1.716 3.834 3.834 0 2.117-1.717 3.834-3.834 3.834-2.118 0-3.834-1.717-3.834-3.834-0.001-2.118 1.716-3.834 3.834-3.834m0-1.999c-3.216 0-5.833 2.617-5.833 5.833s2.617 5.833 5.833 5.833 5.833-2.617 5.833-5.833-2.617-5.833-5.833-5.833z" fill="#4d4d4d" id="path582"/>
</g>
<g id="g584">
<path d="m221.26 391.42c-2.665 0-4.835-2.167-4.835-4.833 0-2.665 2.17-4.833 4.835-4.833 2.666 0 4.833 2.168 4.833 4.833 0 2.666-2.168 4.833-4.833 4.833z" fill="#ccc" id="path586"/>
<path d="m221.26 382.75c2.117 0 3.834 1.716 3.834 3.834 0 2.117-1.717 3.834-3.834 3.834-2.118 0-3.834-1.717-3.834-3.834 0-2.118 1.717-3.834 3.834-3.834m0-1.999c-3.216 0-5.833 2.617-5.833 5.833s2.617 5.833 5.833 5.833 5.833-2.617 5.833-5.833-2.616-5.833-5.833-5.833z" fill="#4d4d4d" id="path588"/>
</g>
<g id="g590">
<path d="m208.96 388.63c-2.665 0-4.833-2.167-4.833-4.831 0-2.665 2.169-4.834 4.833-4.834 2.665 0 4.834 2.169 4.834 4.834 0 2.664-2.168 4.831-4.834 4.831z" fill="#ccc" id="path592"/>
<path d="m208.96 379.96c2.117 0 3.834 1.716 3.834 3.834 0 2.117-1.717 3.834-3.834 3.834-2.118 0-3.834-1.717-3.834-3.834-0.001-2.118 1.716-3.834 3.834-3.834m0-1.999c-3.216 0-5.833 2.617-5.833 5.833s2.617 5.833 5.833 5.833 5.833-2.617 5.833-5.833-2.617-5.833-5.833-5.833z" fill="#4d4d4d" id="path594"/>
</g>
<g id="g596">
<path d="m196.25 391.01c-2.666 0-4.833-2.168-4.833-4.833 0-2.666 2.167-4.835 4.833-4.835 2.665 0 4.835 2.169 4.835 4.835 0 2.665-2.17 4.833-4.835 4.833z" fill="#ccc" id="path598"/>
<path d="m196.25 382.34c2.117 0 3.834 1.716 3.834 3.834 0 2.117-1.717 3.834-3.834 3.834-2.118 0-3.834-1.717-3.834-3.834-0.001-2.118 1.716-3.834 3.834-3.834m0-1.999c-3.216 0-5.833 2.617-5.833 5.833s2.617 5.833 5.833 5.833 5.833-2.617 5.833-5.833-2.617-5.833-5.833-5.833z" fill="#4d4d4d" id="path600"/>
</g>
</g>
</g>
</g>
</g>
</g>
<defs><style>svg .sprite { display: none }
svg .sprite:target { display: inline } </style></defs></svg>
